<svg width="177" height="43.794" viewBox="13.043 14.452 744.7 192.383" fill="none" xmlns="http://www.w3.org/2000/svg"><style>.st0{fill:#fff}.st2{fill:#1257fd}</style><path class="st0" d="M516.311 200.01h3.321v-11.496c0 -3.212 2.427 -5.036 4.817 -5.036 2.865 0 4.014 2.025 4.014 4.708v11.824h3.321v-12.7c0 -4.087 -2.317 -6.934 -6.405 -6.934 -2.719 0 -4.635 1.405 -5.748 2.993v-2.609h-3.321zm-8.923 -6.551c0 2.463 -2.39 4.197 -5.237 4.197 -2.098 0 -3.467 -1.113 -3.467 -2.993 0 -2.317 1.989 -3.12 4.927 -3.722l3.759 -0.803v3.321zm-5.62 6.898c2.609 0 4.744 -1.004 5.93 -2.5 0.401 1.843 2.098 2.536 5.055 2.171v-2.646c-1.296 0.292 -2.062 -0.109 -2.062 -1.369v-9.397c0 -4.124 -2.646 -6.222 -6.971 -6.222 -3.941 0 -6.77 2.244 -7.7 5.383l3.139 0.803c0.584 -2.135 2.025 -3.285 4.452 -3.285 2.573 0 3.795 1.259 3.795 3.467v0.803l-4.671 0.949c-4.306 0.894 -7.299 2.463 -7.299 6.295 -0.018 3.485 2.828 5.547 6.332 5.547m247.326 1.752 8.284 -21.368h-3.467l-5.346 14.744 -5.419 -14.744h-3.504l7.153 18.558 -0.931 2.281c-0.766 1.916 -1.551 2.427 -2.993 2.427 -0.547 0 -0.967 -0.036 -1.588 -0.182v2.865c0.584 0.109 0.985 0.146 1.806 0.146 3.394 0.036 4.89 -1.806 6.003 -4.726m-27.809 -2.098h3.321v-11.496c0 -3.212 2.427 -5.055 4.817 -5.055 2.883 0 4.014 2.025 4.014 4.708v11.824h3.321v-12.7c0 -4.087 -2.317 -6.916 -6.405 -6.916 -2.719 0 -4.635 1.405 -5.748 2.974v-2.609h-3.321zm-8.923 -6.551c0 2.463 -2.39 4.197 -5.237 4.197 -2.098 0 -3.467 -1.113 -3.467 -2.993 0 -2.317 1.989 -3.12 4.945 -3.722l3.759 -0.803zm-5.62 6.898c2.609 0 4.744 -1.004 5.93 -2.5 0.401 1.843 2.098 2.536 5.055 2.171v-2.646c-1.296 0.292 -2.062 -0.109 -2.062 -1.369v-9.397c0 -4.124 -2.646 -6.222 -6.971 -6.222 -3.941 0 -6.77 2.244 -7.7 5.383l3.139 0.803c0.584 -2.135 2.025 -3.285 4.452 -3.285 2.573 0 3.795 1.259 3.795 3.467v0.803l-4.671 0.949c-4.306 0.876 -7.299 2.463 -7.299 6.295 -0.018 3.485 2.828 5.547 6.332 5.547m-23.466 -10.62c0 -4.489 2.719 -6.441 5.456 -6.441 3.613 0 5.638 2.938 5.638 7.116 0 4.124 -2.025 7.116 -5.638 7.116 -2.719 0 -5.456 -1.989 -5.456 -6.405zm6.04 10.693c5.346 0 8.394 -4.562 8.394 -10.018 0 -5.492 -3.047 -10.018 -8.394 -10.018 -2.682 0 -4.817 1.296 -5.967 3.175v-2.81h-3.321v25.893h3.321v-9.434c1.131 1.916 3.266 3.212 5.967 3.212m-38.046 -11.934c0 -3.139 2.354 -5.018 4.562 -5.018 2.719 0 3.832 2.025 3.832 4.708v11.824h3.321v-11.532c0 -3.139 2.354 -5.018 4.562 -5.018 2.719 0 3.832 2.025 3.832 4.708v11.824h3.321v-12.7c0 -4.087 -2.39 -6.916 -6.368 -6.916 -3.029 0 -5.091 1.697 -6.149 3.285 -0.967 -1.989 -2.755 -3.285 -5.346 -3.285 -2.682 0 -4.525 1.405 -5.565 2.974v-2.609h-3.321v19.269h3.321zm-22.061 1.916c0 -4.416 2.208 -7.226 5.602 -7.226s5.602 2.792 5.602 7.226c0 4.379 -2.208 7.189 -5.602 7.189 -3.394 -0.018 -5.602 -2.81 -5.602 -7.189m14.543 0c0 -5.967 -3.686 -10.018 -8.941 -10.018 -5.274 0 -8.959 4.051 -8.959 10.018s3.686 10.018 8.959 10.018c5.255 0 8.941 -4.051 8.941 -10.018m-33.739 0c0 -4.416 2.354 -7.153 5.784 -7.153 2.646 0 4.233 1.734 4.781 4.087l2.865 -1.442c-0.931 -3.212 -3.649 -5.529 -7.664 -5.529 -5.383 0 -9.105 4.051 -9.105 10.018 0 5.93 3.722 10.018 9.105 10.018 4.014 0 6.806 -2.427 7.737 -5.638l-2.938 -1.369c-0.547 2.39 -2.135 4.087 -4.781 4.087 -3.431 0.018 -5.784 -2.701 -5.784 -7.08m-63.939 -32.006h46.33v46.33h-46.33z"/><path d="M587.841 178.551a2.445 2.445 0 1 1 -4.89 0 2.445 2.445 0 0 1 4.89 0" style="fill:#ed2024"/><path class="st2" d="M562.878 193.842c0 -0.912 -0.328 -1.624 -0.967 -2.117s-1.806 -1.004 -3.504 -1.551c-1.679 -0.547 -3.029 -1.077 -3.996 -1.606 -2.682 -1.442 -4.014 -3.394 -4.014 -5.857 0 -1.277 0.365 -2.409 1.077 -3.412s1.752 -1.788 3.102 -2.336c1.35 -0.566 2.847 -0.839 4.525 -0.839s3.193 0.31 4.507 0.912 2.336 1.478 3.066 2.591 1.095 2.372 1.095 3.795h-4.854c0 -1.077 -0.347 -1.916 -1.022 -2.518s-1.642 -0.894 -2.865 -0.894c-1.186 0 -2.117 0.255 -2.774 0.748a2.372 2.372 0 0 0 -0.985 1.989c0 0.766 0.383 1.405 1.168 1.934 0.766 0.529 1.916 1.004 3.412 1.46 2.774 0.839 4.781 1.861 6.04 3.102s1.898 2.774 1.898 4.598c0 2.044 -0.766 3.649 -2.317 4.799q-2.327 1.752 -6.241 1.752c-1.806 0 -3.467 -0.328 -4.963 -1.004 -1.496 -0.657 -2.628 -1.569 -3.412 -2.737 -0.785 -1.15 -1.168 -2.5 -1.168 -4.014h4.872c0 2.609 1.788 3.905 4.671 3.905 1.15 0 2.062 -0.237 2.701 -0.712 0.62 -0.493 0.949 -1.15 0.949 -1.989m24.962 -10.438h-4.872v9.014c0 2.5 -1.569 3.868 -4.197 3.868 -2.755 0 -4.16 -1.369 -4.16 -3.868v-3.12h-4.872v3.303c0 2.865 1.204 7.737 8.996 7.737 7.828 0 9.105 -4.763 9.105 -7.646z"/><path class="st0" d="M347.632 78.738c-3.686 -4.726 -8.157 -8.084 -13.43 -10.109a142.33 142.33 0 0 0 -15.839 -5c-5.274 -1.314 -9.762 -2.847 -13.43 -4.58 -3.686 -1.734 -5.529 -3.996 -5.529 -6.77 0 -2.628 1.15 -4.726 3.431 -6.241 2.299 -1.533 5.164 -2.299 8.649 -2.299 5.693 0 10.2 1.898 13.503 5.693l1.405 1.624 22.536 -12.992 -2.518 -2.938 -0.073 -0.073c-3.285 -3.868 -7.189 -7.062 -11.715 -9.543 -6.952 -3.814 -14.653 -5.73 -23.119 -5.73 -11.24 0 -20.656 2.956 -28.229 8.85 -7.573 5.912 -11.35 13.996 -11.35 24.269q0 10.209 5.529 16.97c3.686 4.507 8.157 7.81 13.43 9.89s10.547 3.814 15.839 5.201c5.274 1.387 9.762 2.956 13.43 4.69 3.686 1.734 5.511 3.996 5.511 6.77 0 5.967 -4.799 8.959 -14.379 8.959 -7.281 0 -12.773 -2.153 -16.496 -6.441l-0.036 -0.036 -2.244 -2.609 -23.174 13.375 4.544 5.292 0.036 0.036c8.394 9.854 20.857 14.78 37.371 14.78q17.901 0 29.889 -8.649c7.992 -5.766 11.97 -13.996 11.97 -24.689 0 -7.08 -1.843 -12.974 -5.511 -17.7"/><path class="st2" d="M191.726 14.78h-0.091c-18.247 0 -34.615 8.175 -45.655 21.039h-0.018l-5.657 6.606 21.24 24.78 8.631 -10.146c5.128 -6.149 12.846 -10.054 21.459 -10.054h0.036c15.419 0.018 27.937 12.591 27.919 28.01 -0.018 15.401 -12.554 27.919 -27.955 27.919H191.598c-8.157 -0.018 -15.894 -3.576 -21.204 -9.781L104.485 16.258a5.164 5.164 0 0 0 -7.846 0L14.288 112.331a5.153 5.153 0 0 0 0.566 7.281l16.605 14.233c2.171 1.861 5.438 1.606 7.299 -0.584L100.543 60.545l45.418 53.574 0.018 -0.018a60.034 60.034 0 0 0 45.564 20.985h0.091c33.137 0 60.107 -26.933 60.162 -60.071 0.036 -33.174 -26.897 -60.198 -60.071 -60.235"/><path class="st0" d="M450.73 37.553c-6.113 -10 -15.547 -14.999 -28.32 -14.999q-19.57 0 -28.959 13.959v-11.04h-26.878v104.156h26.878V71.092c0 -7.627 1.77 -13.467 5.31 -17.499s8.303 -6.04 14.269 -6.04q8.321 0 12.919 5.201c3.047 3.467 4.58 8.339 4.58 14.58v62.278h26.86V71.092c0 -7.627 1.697 -13.467 5.109 -17.499 3.394 -4.033 8.157 -6.04 14.269 -6.04q8.321 0 12.919 5.201c3.047 3.467 4.58 8.339 4.58 14.58v62.278h26.878V65.472c0 -13.047 -3.576 -23.466 -10.729 -31.24s-16.696 -11.66 -28.648 -11.66c-13.74 -0.018 -24.087 4.982 -31.039 14.981M641.214 87.131c0.693 -3.887 1.04 -7.573 1.04 -11.04 0 -15.547 -4.963 -28.612 -14.89 -39.159s-22.536 -15.839 -37.809 -15.839c-16.112 0 -29.305 5.237 -39.579 15.729s-15.419 23.576 -15.419 39.268c0 15.839 5.201 28.959 15.62 39.36 10.419 10.419 24.233 15.62 41.458 15.62 19.999 0 35.126 -7.427 45.418 -22.28l-21.66 -12.499c-5.274 6.952 -13.047 10.419 -23.338 10.419 -15.966 0 -25.765 -6.533 -29.36 -19.579zm-69.559 -36.349c4.726 -3.686 10.693 -5.511 17.919 -5.511 6.113 0 11.569 1.734 16.35 5.201 4.799 3.467 7.956 8.741 9.47 15.839h-53.118c1.533 -6.679 4.653 -11.843 9.379 -15.529m166.708 72.898c8.339 -4.927 14.799 -11.496 19.379 -19.689l-23.338 -13.339c-2.08 4.306 -5.237 7.682 -9.47 10.109s-9.069 3.649 -14.47 3.649c-8.047 0 -14.726 -2.664 -19.999 -8.029 -5.274 -5.346 -7.919 -12.116 -7.919 -20.309 0 -8.339 2.628 -15.164 7.919 -20.51 5.274 -5.346 11.934 -8.029 19.999 -8.029 5.274 0 10.036 1.259 14.269 3.741 4.233 2.5 7.39 5.912 9.47 10.2l23.119 -13.54c-4.306 -8.193 -10.62 -14.726 -18.959 -19.579s-17.572 -7.299 -27.7 -7.299c-15.693 0 -28.776 5.274 -39.268 15.839 -10.492 10.547 -15.729 23.612 -15.729 39.159s5.237 28.612 15.729 39.159c10.474 10.547 23.576 15.839 39.268 15.839 10.127 0.036 19.361 -2.445 27.7 -7.372"/></svg>